<svg width="26" height="26" viewBox="0 0 26 26" fill="none" xmlns="http://www.w3.org/2000/svg">
<path d="M14.0465 20.4412C14.1863 20.5806 14.2973 20.7462 14.373 20.9285C14.4487 21.1108 14.4877 21.3063 14.4877 21.5037C14.4877 21.7012 14.4487 21.8966 14.373 22.079C14.2973 22.2613 14.1863 22.4269 14.0465 22.5662L13.304 23.3087C11.897 24.7157 9.98875 25.5061 7.99898 25.5061C6.00922 25.5061 4.10096 24.7157 2.69398 23.3087C1.28701 21.9018 0.496582 19.9935 0.496582 18.0037C0.496582 16.014 1.28701 14.1057 2.69398 12.6987L5.70898 9.68499C7.06084 8.3298 8.87971 7.54277 10.793 7.48514C12.7063 7.42751 14.5693 8.10362 16.0002 9.37499C16.148 9.50632 16.2684 9.66545 16.3546 9.84331C16.4409 10.0212 16.4912 10.2143 16.5028 10.4116C16.5144 10.6089 16.4871 10.8066 16.4223 10.9934C16.3575 11.1801 16.2566 11.3523 16.1252 11.5C15.9939 11.6477 15.8348 11.7682 15.6569 11.8544C15.4791 11.9406 15.2859 11.991 15.0886 12.0026C14.8913 12.0142 14.6936 11.9868 14.5069 11.922C14.3201 11.8573 14.148 11.7563 14.0002 11.625C13.1421 10.8629 12.0253 10.4575 10.8781 10.4916C9.73098 10.5258 8.64022 10.9969 7.82898 11.8087L4.81648 14.8187C3.97243 15.6628 3.49825 16.8076 3.49825 18.0012C3.49825 19.1949 3.97243 20.3397 4.81648 21.1837C5.66054 22.0278 6.80532 22.502 7.99898 22.502C9.19265 22.502 10.3374 22.0278 11.1815 21.1837L11.924 20.4412C12.0633 20.3018 12.2287 20.1911 12.4108 20.1157C12.5929 20.0402 12.7881 20.0013 12.9852 20.0013C13.1824 20.0013 13.3775 20.0402 13.5596 20.1157C13.7417 20.1911 13.9072 20.3018 14.0465 20.4412ZM23.3065 2.69124C21.8984 1.28643 19.9905 0.497498 18.0015 0.497498C16.0124 0.497498 14.1046 1.28643 12.6965 2.69124L11.954 3.43374C11.6722 3.71554 11.5139 4.09773 11.5139 4.49624C11.5139 4.89476 11.6722 5.27695 11.954 5.55874C12.2358 5.84054 12.618 5.99885 13.0165 5.99885C13.415 5.99885 13.7972 5.84054 14.079 5.55874L14.8215 4.81624C15.6655 3.97219 16.8103 3.49801 18.004 3.49801C19.1977 3.49801 20.3424 3.97219 21.1865 4.81624C22.0305 5.66029 22.5047 6.80507 22.5047 7.99874C22.5047 9.19241 22.0305 10.3372 21.1865 11.1812L18.1727 14.1962C17.3608 15.0077 16.2694 15.4782 15.122 15.5114C13.9745 15.5446 12.8578 15.1381 12.0002 14.375C11.8525 14.2437 11.6803 14.1427 11.4936 14.0779C11.3068 14.0132 11.1092 13.9858 10.9118 13.9974C10.7145 14.009 10.5214 14.0594 10.3436 14.1456C10.1657 14.2318 10.0066 14.3523 9.87523 14.5C9.74391 14.6477 9.64298 14.8199 9.57819 15.0066C9.5134 15.1934 9.48603 15.3911 9.49763 15.5884C9.50924 15.7857 9.5596 15.9788 9.64584 16.1567C9.73207 16.3345 9.8525 16.4937 10.0002 16.625C11.4302 17.8961 13.2919 18.5726 15.2043 18.5162C17.1167 18.4597 18.9352 17.6745 20.2877 16.3212L23.3027 13.3075C24.7092 11.8997 25.4995 9.99136 25.5002 8.00139C25.5009 6.01143 24.7119 4.10251 23.3065 2.69374V2.69124Z" fill="#FF7009"/>
</svg>
